<svg id="ac9a9258-077b-4035-a5eb-f239de1ffcce" data-name="Calque 1" xmlns="http://www.w3.org/2000/svg" viewBox="0 0 25.95 25.95"><defs><style>.b3c96bcd-00c5-436c-9470-8a729d47a527,.e2c39e07-cfb7-45f4-bdd4-ad92b3114be9{fill:none;}.f06c0f04-5a35-409c-8567-c02323432955{fill:#b7b7b7;}.ae28861f-ee27-4e3a-98cf-5fc617be4f5c,.e2c39e07-cfb7-45f4-bdd4-ad92b3114be9{stroke:#b7b7b7;stroke-linecap:round;stroke-linejoin:round;stroke-width:1.18px;}.ae28861f-ee27-4e3a-98cf-5fc617be4f5c{fill:#505050;}</style></defs><title>Plan de travail 11-1</title><rect class="b3c96bcd-00c5-436c-9470-8a729d47a527" width="25.95" height="25.95"/><path class="f06c0f04-5a35-409c-8567-c02323432955" d="M21.22,10.27H23a2.54,2.54,0,0,1,2.54,2.54v1.35a0,0,0,0,1,0,0h-6.9a0,0,0,0,1,0,0V12.81a2.54,2.54,0,0,1,2.54-2.54Z" transform="translate(15.12 -12.07) rotate(45)"/><path class="f06c0f04-5a35-409c-8567-c02323432955" d="M17.77,11.67l-4.25,2.64-3.47,8.4.55.55L14.84,19a.87.87,0,0,1,.19-.9.84.84,0,0,1,1.19,0,.84.84,0,0,1-.89,1.39l-4.24,4.24.55.55L20,20.83l2.63-4.25Z"/><polyline class="e2c39e07-cfb7-45f4-bdd4-ad92b3114be9" points="4.04 5.5 4.04 23.8 9.13 23.8"/><polygon class="ae28861f-ee27-4e3a-98cf-5fc617be4f5c" points="1.57 5.5 4.04 1.5 6.5 5.5 1.57 5.5"/></svg>