<svg id="acf031c0-45a0-447f-b95c-c15c54db3577" data-name="Calque 1" xmlns="http://www.w3.org/2000/svg" viewBox="0 0 22.25 22.25"><defs><style>.b1282aa9-1314-4527-851c-668e2dacadc4{fill:#b7b7b7;}</style></defs><title>ASCII-BOX</title><path class="b1282aa9-1314-4527-851c-668e2dacadc4" d="M4.52,2l14.75,10.9,0,.14c-.16,0-4.94.6-7.18.84a1.31,1.31,0,0,0-1,.57c-1.32,1.81-4.42,5.8-4.42,5.8H6.56L4.49,2.07l0,0m0-1a1,1,0,0,0-.64.24l0,0a1,1,0,0,0-.35.88L5.57,20.39a1,1,0,0,0,.75.85.75.75,0,0,0,.26,0,1,1,0,0,0,.82-.38c.12-.16,3.12-4,4.43-5.82a.37.37,0,0,1,.32-.17c1.89-.2,7-.79,7.3-.86a1,1,0,0,0,.73-.68l0-.08v0a1,1,0,0,0-.36-1.1L5.12,1.24a1,1,0,0,0-.6-.2Z"/></svg>