<svg id="a860a67d-a843-44f0-810a-9c162dad6a43" data-name="Calque 1" xmlns="http://www.w3.org/2000/svg" viewBox="0 0 25.95 25.95"><defs><style>.bf45706a-af14-469b-8d9e-53ca7bb64397,.e3b7c488-d801-4153-95c8-83e8ccbd89c8{fill:none;}.b6648da5-956a-4a61-a645-4f7d8341ad24{fill:#b7b7b7;}.bf45706a-af14-469b-8d9e-53ca7bb64397,.e279cfdb-3c71-4ba8-a631-0ed273ee4ee0{stroke:#b7b7b7;stroke-linecap:round;stroke-linejoin:round;stroke-width:1.18px;}.e279cfdb-3c71-4ba8-a631-0ed273ee4ee0{fill:#505050;}</style></defs><title>Plan de travail 15-1</title><rect class="e3b7c488-d801-4153-95c8-83e8ccbd89c8" width="25.95" height="25.95"/><path class="b6648da5-956a-4a61-a645-4f7d8341ad24" d="M9.77,2.63h2.35a2.54,2.54,0,0,1,2.54,2.54V6.81a0,0,0,0,1,0,0H7.23a0,0,0,0,1,0,0V5.17A2.54,2.54,0,0,1,9.77,2.63Z" transform="translate(-0.13 9.12) rotate(-45)"/><path class="b6648da5-956a-4a61-a645-4f7d8341ad24" d="M10.36,9.41,13.2,14l9,3.74.59-.59-4.57-4.57a.91.91,0,0,1-1-.2.91.91,0,0,1,1.29-1.29.91.91,0,0,1,.2,1l4.57,4.57L24,16,20.21,7,15.63,4.14Z"/><polyline class="bf45706a-af14-469b-8d9e-53ca7bb64397" points="2.8 3.5 2.8 21.8 21.95 21.8"/><polygon class="e279cfdb-3c71-4ba8-a631-0ed273ee4ee0" points="19.75 19.29 23.75 21.76 19.75 24.23 19.75 19.29"/></svg>