<svg id="f93058ce-c6bc-42e1-967c-7c8194fdf2c7" data-name="Calque 1" xmlns="http://www.w3.org/2000/svg" viewBox="0 0 25.95 25.95"><defs><style>.ab995178-8dc9-4166-9a24-1081c2ac8d2a{fill:#b7b7b7;}</style></defs><title>Plan de travail 10-1</title><path class="ab995178-8dc9-4166-9a24-1081c2ac8d2a" d="M12.53,18.41a4.73,4.73,0,0,1-3.42,4.42A9.11,9.11,0,0,1,1,22.27c3.2-1.21,1.85-5.54,4.36-7.26a4.8,4.8,0,0,1,5-.35A4,4,0,0,1,12.53,18.41Z"/><path class="ab995178-8dc9-4166-9a24-1081c2ac8d2a" d="M23.63,3.22a1.57,1.57,0,0,1,.19,2.17c-2.53,4-6.17,7.09-9.31,10.59-.67.74-1.13.13-1.44-.5a4.44,4.44,0,0,0-1.88-1.78c-.5-.28-.61-.81-.09-1.39A71,71,0,0,1,21.17,3,1.81,1.81,0,0,1,23.63,3.22Z"/></svg>