<svg id="b8856c84-6714-46ff-855e-bf955f3bc602" data-name="Calque 1" xmlns="http://www.w3.org/2000/svg" viewBox="0 0 26 26"><defs><style>.bf746b19-dde3-49c5-b41d-a8cea44607c3{fill:#505050;fill-rule:evenodd;}</style></defs><title>Plan de travail 10 copie-1</title><path class="bf746b19-dde3-49c5-b41d-a8cea44607c3" d="M13,.27A12.81,12.81,0,0,0,9,25.21c.64.12.87-.28.87-.62s0-1.31,0-2.37C6.33,23,5.6,20.69,5.6,20.69a3.27,3.27,0,0,0-1.41-1.86c-1.16-.78.08-.78.08-.78a2.67,2.67,0,0,1,2,1.31,2.69,2.69,0,0,0,3.7,1.06,2.7,2.7,0,0,1,.8-1.72c-2.82-.29-5.79-1.4-5.79-6.31A5,5,0,0,1,6.25,9a4.64,4.64,0,0,1,.12-3.39s1.08-.34,3.5,1.31A12.1,12.1,0,0,1,13,6.46a12.5,12.5,0,0,1,3.18.42c2.42-1.65,3.49-1.31,3.49-1.31A4.64,4.64,0,0,1,19.83,9a4.91,4.91,0,0,1,1.31,3.43c0,4.91-3,6-5.81,6.31a3,3,0,0,1,.87,2.38c0,1.71,0,3.09,0,3.51s.23.74.86.62A12.81,12.81,0,0,0,13,.27Z"/></svg>